<svg width="84" height="81" viewBox="0 0 84 81" fill="none" xmlns="http://www.w3.org/2000/svg">
<g clip-path="url(#clip0_4039_390)">
<path d="M19.8031 35.9976L12.5985 56.3317H7.1669L0 35.9976H5.66579L9.78864 50.2585L13.3345 37.8078C13.7192 36.6148 14.5679 36.0016 15.8391 36.0016H19.8072L19.8031 35.9976Z" fill="#9E4752"/>
<path d="M30.0559 56.7899C23.8925 56.5981 20.8066 53.0234 20.8066 46.1035C20.8066 39.1836 23.926 35.7258 30.1311 35.6882C36.604 35.6882 39.648 39.6466 39.2633 47.6051H26.0878C26.2801 50.7167 27.6307 52.2934 30.1353 52.2934C31.3312 52.2934 32.4477 51.7929 33.447 50.8336C33.9111 50.333 34.4881 50.1036 35.1823 50.1036H38.9581C37.8416 54.4081 35.0651 56.7899 30.0559 56.7899ZM26.163 43.9553H33.8317C33.5223 41.265 32.2511 39.8802 30.0559 39.8802C27.8607 39.8802 26.5477 41.265 26.163 43.9553Z" fill="#9E4752"/>
<path d="M47.3168 39.6509H46.7775V50.913C46.7775 51.7598 47.2792 52.2186 48.2786 52.2186H49.8592V56.1019C48.2032 56.2563 46.3928 56.2563 44.4651 56.0643C42.5376 55.8725 41.6134 54.6795 41.651 52.4146V30.1992H44.3105C45.661 30.1992 46.7775 31.4297 46.7775 32.7728V36.0013H49.8592V37.115C49.8592 38.5749 48.7427 39.6509 47.3168 39.6509Z" fill="#9E4752"/>
<path d="M52.0208 45.8372C52.1756 39.2636 55.6795 35.9976 62.4994 35.9976H63.2311V41.3032H61.4959C58.6442 41.3032 57.2183 42.8006 57.2183 45.7621V56.3317H52.0166V45.8372H52.0208Z" fill="#9E4752"/>
<path d="M84.0001 46.2578C84.0001 53.2528 80.8807 56.7899 74.7131 56.7899C68.5456 56.7899 65.4639 53.2528 65.4639 46.2578C65.4639 39.2628 68.5456 35.6882 74.7131 35.6882C80.8807 35.6882 84.0001 39.1878 84.0001 46.2578ZM70.6698 46.2578C70.7073 50.2162 72.058 52.2141 74.6755 52.2141C77.293 52.2141 78.606 50.137 78.6437 46.1035C78.6437 42.1451 77.3349 40.1847 74.7131 40.1847C72.0915 40.1847 70.6656 42.2202 70.6656 46.2578H70.6698Z" fill="#9E4752"/>
<path d="M48.7009 20.526H42.3075C39.9366 20.526 37.7205 19.3664 36.3657 17.4269L24.2439 0H30.6372C33.0081 0 35.2284 1.15957 36.5789 3.09914L48.7009 20.5219V20.526Z" fill="#9E4752"/>
<path d="M59.7565 0L53.6851 8.72598C53.0663 9.61859 52.046 10.1525 50.9546 10.1525H42.5166L48.5879 1.42652C49.2068 0.533903 50.2271 0 51.3184 0H59.7565Z" fill="#9E4752"/>
<path d="M17 80.1939V74.5879H19.8601V75.2887H17.7527V80.1939H17ZM17.623 77.6412V76.9404H19.7806V77.6412H17.623Z" fill="#231F20"/>
<path d="M24.1751 80.294C23.7319 80.294 23.343 80.2022 23.0044 80.0187C22.6657 79.8352 22.4064 79.5766 22.2225 79.247C22.0384 78.9175 21.9465 78.5338 21.9465 78.1V74.5879H22.6992V78.0917C22.6992 78.3836 22.7576 78.6464 22.8747 78.8716C22.9918 79.0968 23.1633 79.2762 23.3849 79.4013C23.6107 79.5265 23.8699 79.5933 24.1711 79.5933C24.6268 79.5933 24.9863 79.4556 25.2498 79.1761C25.5132 78.9008 25.647 78.538 25.647 78.0917V74.5879H26.3996V78.1C26.3996 78.5254 26.3077 78.9092 26.1237 79.2429C25.9397 79.5765 25.6805 79.8352 25.3417 80.0187C25.0031 80.2022 24.6143 80.294 24.1711 80.294H24.1751Z" fill="#231F20"/>
<path d="M28.8711 74.5879H30.5856C30.966 74.5879 31.3047 74.6588 31.5974 74.8048C31.8902 74.9466 32.12 75.1469 32.2831 75.4013C32.4463 75.6557 32.5299 75.9435 32.5299 76.2731C32.5299 76.6025 32.4463 76.8904 32.2831 77.1448C32.12 77.3993 31.8902 77.5953 31.5974 77.7412C31.3047 77.883 30.966 77.9581 30.5856 77.9581H29.423V77.2574H30.5688C30.9368 77.2574 31.2253 77.1698 31.4385 76.9988C31.6475 76.8236 31.7562 76.5859 31.7562 76.2772C31.7562 75.9686 31.6517 75.7308 31.4385 75.5556C31.2294 75.3805 30.9368 75.297 30.5688 75.297H29.6238V80.2022H28.8711V74.5879ZM32.2831 80.1939L29.9667 77.5118H30.8991L33.2281 80.1939H32.2831Z" fill="#231F20"/>
<path d="M35.0637 80.1939V74.5879H35.5571L39.6299 79.1511L39.4083 79.222V74.5879H40.1399V80.1939H39.6465L35.5739 75.6307L35.7955 75.5598V80.1939H35.0637Z" fill="#231F20"/>
<path d="M42.7615 80.1939V74.5879H43.5141V80.1939H42.7615Z" fill="#231F20"/>
<path d="M47.0559 80.1939V75.2887H45.5505V74.5879H49.3137V75.2887H47.8084V80.1939H47.0559Z" fill="#231F20"/>
<path d="M53.4281 80.294C52.9848 80.294 52.596 80.2022 52.2574 80.0187C51.9187 79.8352 51.6594 79.5766 51.4754 79.247C51.2914 78.9175 51.1995 78.5338 51.1995 78.1V74.5879H51.9521V78.0917C51.9521 78.3836 52.0106 78.6464 52.1277 78.8716C52.2448 79.0968 52.4162 79.2762 52.6378 79.4013C52.8636 79.5265 53.1228 79.5933 53.424 79.5933C53.8797 79.5933 54.2393 79.4556 54.5028 79.1761C54.7661 78.9008 54.8999 78.538 54.8999 78.0917V74.5879H55.6526V78.1C55.6526 78.5254 55.5607 78.9092 55.3766 79.2429C55.1927 79.5765 54.9334 79.8352 54.5947 80.0187C54.2561 80.2022 53.8672 80.294 53.424 80.294H53.4281Z" fill="#231F20"/>
<path d="M58.1238 74.5879H59.8382C60.2187 74.5879 60.5574 74.6588 60.8501 74.8048C61.1428 74.9466 61.3727 75.1469 61.5359 75.4013C61.699 75.6557 61.7826 75.9435 61.7826 76.2731C61.7826 76.6025 61.699 76.8904 61.5359 77.1448C61.3727 77.3993 61.1428 77.5953 60.8501 77.7412C60.5574 77.883 60.2187 77.9581 59.8382 77.9581H58.6758V77.2574H59.8214C60.1894 77.2574 60.478 77.1698 60.6912 76.9988C60.9002 76.8236 61.0091 76.5859 61.0091 76.2772C61.0091 75.9686 60.9044 75.7308 60.6912 75.5556C60.4822 75.3805 60.1894 75.297 59.8214 75.297H58.8764V80.2022H58.1238V74.5879ZM61.5359 80.1939L59.2194 77.5118H60.1518L62.4809 80.1939H61.5359Z" fill="#231F20"/>
<path d="M64.3167 80.1939V74.5879H67.507V75.2887H65.0693V79.4931H67.5991V80.1939H64.3167ZM64.9481 77.6412V76.9404H67.4276V77.6412H64.9481Z" fill="#231F20"/>
</g>
<defs>
<clipPath id="clip0_4039_390">
<rect width="84" height="80.2941" fill="white"/>
</clipPath>
</defs>
</svg>
