<svg width="115" height="40" viewBox="0 0 115 40" fill="none" xmlns="http://www.w3.org/2000/svg">
<g clip-path="url(#clip0_4031_1392)">
<path d="M57.0476 5.23193L50.6951 23.5608H45.9055L39.5876 5.23193H44.582L48.2152 18.0875L51.3411 6.86138C51.6814 5.78794 52.4282 5.23193 53.55 5.23193H57.0476Z" fill="#9E4752"/>
<path d="M62.6575 12.4059H69.4164C69.1455 9.9794 68.0237 8.73236 66.0858 8.73236C64.1479 8.73236 62.9946 9.9794 62.6544 12.4059M66.0858 23.9792C60.6503 23.8056 57.9309 20.582 57.9309 14.3471C57.9309 8.11212 60.6818 4.99141 66.152 4.95605C71.8585 4.95605 74.5432 8.52668 74.2029 15.6969H62.585C62.7552 18.5027 63.9431 19.9232 66.152 19.9232C67.2044 19.9232 68.1907 19.4732 69.073 18.6056C69.4795 18.1556 69.9899 17.9467 70.6012 17.9467H73.9319C72.9456 21.8259 70.5004 23.976 66.0858 23.976" fill="#9E4752"/>
<path d="M81.3087 8.52328H80.8327V18.676C80.8327 19.4377 81.2735 19.8523 82.1559 19.8523H83.5487V23.3522C82.0871 23.4905 80.4927 23.4905 78.7939 23.3169C77.0955 23.1434 76.2794 22.0699 76.314 20.0258V0H78.6584C79.8464 0 80.8327 1.1088 80.8327 2.32044V5.23224H83.5487V6.23819C83.5487 7.55589 82.5623 8.52328 81.3055 8.52328" fill="#9E4752"/>
<path d="M85.4504 14.1023C85.5856 8.17587 88.6768 5.23193 94.6896 5.23193H95.3352V10.0142H93.8072C91.2928 10.0142 90.0352 11.364 90.0352 14.0348V23.564H85.4504V14.1055V14.1023Z" fill="#9E4752"/>
<path d="M101.897 14.4821C101.932 18.0528 103.12 19.8526 105.43 19.8526C107.739 19.8526 108.895 17.982 108.927 14.344C108.927 10.7765 107.77 9.00883 105.461 9.00883C103.151 9.00883 101.894 10.844 101.894 14.4821M113.65 14.4821C113.65 20.7878 110.9 23.976 105.464 23.976C100.029 23.976 97.3088 20.7878 97.3088 14.4821C97.3088 8.17643 100.026 4.95288 105.464 4.95288C110.902 4.95288 113.65 8.10571 113.65 14.4821Z" fill="#9E4752"/>
<path d="M36.7521 36.9789H38.6553V37.6088H36.7521V36.9789ZM36.2038 39.9099V34.8577H38.7247V35.4908H36.8656V39.9132H36.2007L36.2038 39.9099Z" fill="#231F20"/>
<path d="M42.5307 40.0002C42.1399 40.0002 41.7965 39.9167 41.5003 39.7527C41.201 39.5856 40.9709 39.3542 40.8103 39.0585C40.6463 38.7596 40.5676 38.4158 40.5676 38.0236V34.8547H41.2325V38.014C41.2325 38.2775 41.2829 38.5122 41.3869 38.7179C41.4908 38.9235 41.639 39.0811 41.8375 39.1967C42.036 39.3124 42.266 39.3671 42.5307 39.3671C42.9309 39.3671 43.2491 39.2417 43.4823 38.9943C43.7155 38.7435 43.8321 38.419 43.8321 38.014V34.8547H44.497V38.0236C44.497 38.4093 44.4151 38.7532 44.2543 39.0521C44.0936 39.351 43.8636 39.5856 43.5643 39.7527C43.2649 39.9167 42.9246 40.0002 42.5339 40.0002" fill="#231F20"/>
<path d="M49.6801 39.9102L47.6351 37.4902H48.4576L50.512 39.9102H49.6801ZM46.6709 39.9102V34.8579H48.1834C48.5205 34.8579 48.8168 34.9222 49.0783 35.0508C49.3367 35.1794 49.5384 35.3594 49.6833 35.5875C49.8282 35.8157 49.9007 36.0792 49.9007 36.3717C49.9007 36.6642 49.8282 36.9277 49.6833 37.1559C49.5384 37.3841 49.3367 37.5641 49.0783 37.6926C48.8199 37.8212 48.5205 37.8854 48.1834 37.8854H47.1561V37.2523H48.1645C48.489 37.2523 48.7443 37.1752 48.9302 37.0177C49.1161 36.8602 49.2075 36.6449 49.2075 36.3685C49.2075 36.0921 49.1161 35.8768 48.9302 35.7193C48.7443 35.5618 48.489 35.4846 48.1645 35.4846H47.3326V39.907H46.6677L46.6709 39.9102Z" fill="#231F20"/>
<path d="M52.135 39.9101V34.8579H52.5667L56.1589 38.9717L55.9667 39.036V34.8579H56.6127V39.9101H56.1778L52.5857 35.7963L52.781 35.7321V39.9101H52.135Z" fill="#231F20"/>
<path d="M59.5821 34.8579H58.9172V39.9101H59.5821V34.8579Z" fill="#231F20"/>
<path d="M62.7047 39.9101V35.4878H61.3782V34.8579H64.6962V35.4878H63.3696V39.9101H62.7047Z" fill="#231F20"/>
<path d="M68.3249 40.0002C67.9342 40.0002 67.5907 39.9167 67.2945 39.7527C66.9952 39.5856 66.7652 39.3542 66.6045 39.0585C66.4406 38.7596 66.3618 38.4158 66.3618 38.0236V34.8547H67.0267V38.014C67.0267 38.2775 67.0771 38.5122 67.1811 38.7179C67.2851 38.9235 67.4332 39.0811 67.6317 39.1967C67.8302 39.3124 68.0602 39.3671 68.3249 39.3671C68.7251 39.3671 69.0433 39.2417 69.2765 38.9943C69.5097 38.7435 69.6263 38.419 69.6263 38.014V34.8547H70.2912V38.0236C70.2912 38.4093 70.2093 38.7532 70.0485 39.0521C69.8878 39.351 69.6578 39.5856 69.3585 39.7527C69.0591 39.9167 68.7188 40.0002 68.3281 40.0002" fill="#231F20"/>
<path d="M75.4746 39.9102L73.4296 37.4902H74.252L76.3065 39.9102H75.4746ZM72.4685 39.9102V34.8579H73.981C74.3181 34.8579 74.6144 34.9222 74.8759 35.0508C75.1343 35.1794 75.3359 35.3594 75.4808 35.5875C75.6258 35.8157 75.6983 36.0792 75.6983 36.3717C75.6983 36.6642 75.6258 36.9277 75.4808 37.1559C75.3359 37.3841 75.1343 37.5641 74.8759 37.6926C74.6175 37.8212 74.3181 37.8854 73.981 37.8854H72.9537V37.2523H73.962C74.2866 37.2523 74.5419 37.1752 74.7278 37.0177C74.9136 36.8602 75.0082 36.6449 75.0082 36.3685C75.0082 36.0921 74.9136 35.8768 74.7278 35.7193C74.5419 35.5618 74.2866 35.4846 73.962 35.4846H73.1302V39.907H72.4653L72.4685 39.9102Z" fill="#231F20"/>
<path d="M78.4837 36.979H80.6704V37.609H78.4837V36.979ZM77.926 39.9101V34.8579H80.74V35.491H78.5909V39.2802H80.8216V39.9134H77.9291L77.926 39.9101Z" fill="#231F20"/>
<path d="M21.8812 23.5481H16.244C14.1548 23.5481 12.198 22.5036 11.0069 20.752L0.318604 5.04565H5.95582C8.04501 5.04565 10.0018 6.09017 11.1928 7.84175L21.8812 23.5513V23.5481Z" fill="#9E4752"/>
<path d="M31.6325 5.0459L26.2789 12.9136C25.7306 13.717 24.8326 14.1991 23.8715 14.1991H16.4319L21.7855 6.33147C22.3338 5.52799 23.2318 5.0459 24.1929 5.0459H31.6325Z" fill="#9E4752"/>
</g>
<defs>
<clipPath id="clip0_4031_1392">
<rect width="114.4" height="40" fill="white"/>
</clipPath>
</defs>
</svg>
